<?xml version="1.0" encoding="UTF-8" standalone="no"?>
<!-- Created with Inkscape (http://www.inkscape.org/) -->

<svg
   width="120mm"
   height="160mm"
   viewBox="0 0 120 160"
   version="1.1"
   id="svg1"
   xml:space="preserve"
   inkscape:version="1.3 (0e150ed6c4, 2023-07-21)"
   sodipodi:docname="logo.svg"
   xmlns:inkscape="http://www.inkscape.org/namespaces/inkscape"
   xmlns:sodipodi="http://sodipodi.sourceforge.net/DTD/sodipodi-0.dtd"
   xmlns="http://www.w3.org/2000/svg"
   xmlns:svg="http://www.w3.org/2000/svg"><sodipodi:namedview
     id="namedview1"
     pagecolor="#ffffff"
     bordercolor="#000000"
     borderopacity="0.25"
     inkscape:showpageshadow="2"
     inkscape:pageopacity="0.0"
     inkscape:pagecheckerboard="0"
     inkscape:deskcolor="#d1d1d1"
     inkscape:document-units="mm"
     inkscape:zoom="0.44631734"
     inkscape:cx="12.32307"
     inkscape:cy="92.983167"
     inkscape:window-width="1366"
     inkscape:window-height="697"
     inkscape:window-x="-8"
     inkscape:window-y="-8"
     inkscape:window-maximized="1"
     inkscape:current-layer="g31" /><defs
     id="defs1" /><g
     inkscape:label="Capa 1"
     inkscape:groupmode="layer"
     id="layer1"><g
       id="g31"
       transform="translate(-5.2397883,-8.8028446)"><path
         style="fill:#2ddcf1;stroke:#ffffff;stroke-width:0;stroke-dasharray:none;stroke-opacity:1"
         d="m 13.239273,157.12837 c -0.581717,-0.11453 -1.534671,-0.4875 -2.117676,-0.82917 -0.583004,-0.34166 -1.326385,-0.97409 -1.651958,-1.4054 C 9.144066,154.46246 8.626782,153.69355 8.594544,153.13775 8.337822,148.71176 8.950148,57.758531 8.784622,48.393312 20.591186,41.447884 40.246455,27.708393 41.136031,28.048524 c 0.230993,3.837222 -0.262226,75.379316 0.0453,111.374026 0.02709,0.58954 -2.932312,1.21465 -3.434268,1.14936 -0.109829,-0.34046 -0.80353,-0.11616 -0.982572,0.003 -0.172435,0.11487 -1.057394,0.6601 -1.904984,0.8559 -1.07481,0.24819 -1.785912,0.28842 -2.350304,0.13269 -0.445073,-0.12296 -1.089584,-0.55663 -1.432246,-0.96387 -0.342661,-0.40723 -0.625924,-0.97801 -0.629473,-1.26842 -0.0036,-0.29037 -0.03082,-2.55069 -0.06074,-5.02281 -0.04935,-4.08451 -0.104274,-4.60315 -0.601926,-5.68194 -0.301208,-0.65293 -0.777083,-1.38613 -1.057524,-1.62936 -0.280443,-0.24333 -0.879975,-0.56436 -1.332302,-0.71363 -0.613917,-0.20245 -1.176609,-0.19791 -2.21952,0.0195 -1.076682,0.22353 -1.606732,0.49966 -2.311134,1.20408 -0.914035,0.91404 -0.914035,0.91404 -0.918593,9.87143 -0.0025,4.92656 -0.06395,10.10539 -0.136556,11.50849 -0.07261,1.40309 -0.248909,3.08475 -0.391765,3.73703 -0.209003,0.95417 -0.535815,1.46198 -1.672265,2.59842 -1.07295,1.07298 -1.718338,1.50335 -2.684785,1.79034 -0.69976,0.20764 -1.607777,0.36584 -2.017817,0.35121 -0.41004,-0.0162 -1.221475,-0.12037 -1.803192,-0.23457 z"
         id="path33"
         sodipodi:nodetypes="csssccscsccsccscccssssscccc"
         inkscape:label="izquierdo" /><path
         style="fill:#046ca6;stroke:#ffffff;stroke-width:0;stroke-dasharray:none;stroke-opacity:1"
         d="m 117.32686,150.30514 c -0.41983,-0.10025 -1.13197,-0.40983 -1.58252,-0.6883 -0.45055,-0.27836 -1.09104,-0.81401 -1.42331,-1.19013 -0.60413,-0.68385 -0.60413,-0.68385 -0.72561,-12.71039 -0.10956,-10.8455 -0.16352,-12.1109 -0.54944,-12.8852 -0.23538,-0.47222 -0.88592,-1.15555 -1.44566,-1.5185 -0.7325,-0.47498 -1.33117,-0.65987 -2.1363,-0.65987 -0.81387,0 -1.4177,0.18979 -2.21651,0.69624 -0.62271,0.39494 -1.21326,0.99959 -1.36442,1.39703 -0.14658,0.38543 -0.32321,2.84752 -0.39252,5.47138 -0.0884,3.34784 -0.23009,5.01966 -0.47496,5.60576 -0.19194,0.45934 -0.70761,1.24366 -1.14597,1.74291 -0.43836,0.49928 -1.24469,1.13955 -1.79186,1.42289 -0.71318,0.36927 -1.57952,0.54314 -3.06,0.61406 -2.001342,0.096 -2.101742,0.0746 -3.248192,-0.693 -0.65066,-0.43556 -1.4919,-1.21833 -1.86941,-1.73947 -0.37752,-0.52115 -1.28312,-1.44559 -1.43609,-2.18239 -0.2053,-0.98902 -0.0994,-15.04762 -0.0386,-53.416842 0.0487,-30.74175 0.1537,-52.231513 0.26812,-52.169933 25.867772,13.75734 -13.65135,-7.86723 29.137012,15.809486 0,0 0.26842,0.987137 0.26842,52.546982 0,28.357907 -0.0674,51.897117 -0.14992,52.309377 -0.11196,0.55982 -0.40408,0.88432 -1.15407,1.28202 -0.55228,0.29296 -1.27748,0.67924 -1.61156,0.85859 -0.33407,0.17941 -0.71673,0.31568 -0.85036,0.3027 -0.13363,-0.013 -0.58646,-0.10512 -1.00629,-0.20537 z m -19.888262,-2.32366 c -0.40059,-0.2164 -0.9134,-0.56121 -1.13959,-0.76593 -0.2262,-0.20472 -0.57459,-0.85152 -0.77422,-1.43739 -0.2381,-0.69877 -0.2953,-1.30122 -0.16627,-1.75112 0.1082,-0.37722 0.37659,-1.03372 0.59646,-1.45889 0.22792,-0.44072 0.83014,-0.99262 1.4009,-1.2838 0.79356,-0.40484 1.232318,-0.47599 2.116082,-0.34355 0.6132,0.0919 1.41734,0.38254 1.78696,0.64573 0.3696,0.26312 0.94125,0.93791 1.27032,1.49945 0.57923,0.98837 0.35102,1.53168 0.23788,2.2504 -0.12377,0.78622 -0.67732,1.53666 -1.19697,2.04032 -0.68941,0.66821 -1.06227,0.82732 -2.11989,0.90466 -0.873484,0.0639 -1.515952,-0.0324 -2.011682,-0.29978 -3e-5,-2e-5 5e-5,-8e-5 2e-5,-1e-4 z"
         id="path31"
         sodipodi:nodetypes="ssssssscssssscssssscsssssssssssssssssssss"
         inkscape:label="Derecho" /><path
         style="display:inline;fill:#3ca7f5;stroke:#ffffff;stroke-width:0;stroke-dasharray:none;stroke-opacity:1"
         d="m 47.519964,165.08036 c -0.884028,-0.22516 -1.776756,-0.73667 -2.97627,-1.70583 -0.942407,-0.76142 -1.713465,-1.50075 -1.713465,-1.64292 0,-0.1421 -0.455098,-0.90702 -0.739046,-1.80702 C 41.378884,157.66688 40.971596,28.013948 40.971596,28.013948 l 26.606343,-14.937911 25.30222,14.454951 -0.1226,19.86334 c -0.0696,50.680116 -0.1484,63.560092 -0.41844,62.501742 -0.13636,-0.53451 -0.51573,-1.33039 -0.84304,-1.76858 -0.32729,-0.43818 -0.83046,-1.01601 -1.11814,-1.28402 -0.28768,-0.26799 -1.1718,-0.81149 -1.96471,-1.20769 -1.17407,-0.58671 -1.74845,-0.72041 -3.09447,-0.72041 -1.07234,0 -2.12118,0.17519 -2.98645,0.49898 -0.73351,0.27448 -1.87226,0.98324 -2.53056,1.57508 -0.6583,0.59187 -1.40158,1.488 -1.65174,1.99137 -0.42009,0.84535 -0.4641,1.81509 -0.57631,12.69887 -0.12147,11.78361 -0.12147,11.78361 -0.8919,13.36284 -0.42373,0.86858 -1.18906,1.97517 -1.70072,2.45911 -0.51167,0.48393 -1.43722,1.17037 -2.05678,1.52544 -0.61956,0.35503 -1.84955,0.79681 -2.73331,0.98174 -1.35125,0.28259 -1.85345,0.28454 -3.15719,0.013 -0.8527,-0.17844 -2.09895,-0.60238 -2.76947,-0.94217 -0.67051,-0.33975 -1.55136,-1.02081 -1.95744,-1.51346 -0.40607,-0.49263 -1.09482,-1.61707 -1.53055,-2.49872 -0.79223,-1.60299 -0.79223,-1.60299 -0.97901,-0.75263 -0.10275,0.4677 -0.24784,5.8947 -0.32243,12.06002 -0.10693,8.83872 -0.21296,11.51088 -0.501219,12.63396 -0.20109,0.78338 -0.52275,1.76137 -0.71483,2.17331 -0.19207,0.41197 -0.90302,1.26702 -1.57987,1.90013 -0.67685,0.63314 -1.745,1.37866 -2.37366,1.65674 -0.81055,0.35854 -1.77992,0.52864 -3.332746,0.58483 -1.289428,0.0467 -2.708936,-0.0529 -3.452544,-0.24203 z m 19.200115,-9.12831 c -0.5575,-0.25306 -1.19875,-0.74274 -1.42501,-1.08804 -0.22642,-0.34555 -0.4678,-1.3309 -0.5369,-2.19173 -0.11047,-1.3764 -0.0503,-1.68955 0.50186,-2.61176 0.34507,-0.57633 1.31614,-1.79709 2.15795,-2.71282 1.53055,-1.66491 1.53055,-1.66491 2.3607,-0.48591 0.45659,0.64846 1.30391,1.86925 1.88295,2.71289 0.78039,1.13699 1.05141,1.76562 1.04746,2.42961 -0.003,0.49266 -0.20719,1.33308 -0.45387,1.86759 -0.2467,0.53451 -0.70896,1.20737 -1.02725,1.49521 -0.31831,0.28777 -1.01604,0.64258 -1.55056,0.78828 -0.53451,0.14568 -1.19051,0.26312 -1.45776,0.26085 -0.26724,-0.002 -0.94206,-0.21121 -1.49957,-0.46424 z"
         id="path32"
         sodipodi:nodetypes="csssccccssssssssssssccssssssssssccssssssssssssss"
         inkscape:label="Centro" /><path
         d="m 61.965951,64.474304 c 0.0466,-0.0513 0.16342,-2.72693 0.25955,-5.946029 0.17475,-5.85289 0.17475,-5.85289 -5.85464,-6.00162 -3.316162,-0.0818 -6.087922,-0.0904 -6.159452,-0.0191 -0.0715,0.0713 -0.16443,2.86749 -0.20644,6.21379 -0.0764,6.084149 -0.0764,6.084149 5.899902,5.965109 3.28696,-0.0655 6.01445,-0.16092 6.06109,-0.21218 z m 15.08405,-5.924199 c 0,-6.07403 0,-6.07403 -5.95254,-6.07403 -5.95254,0 -5.95254,0 -6.01751,6.00779 -0.065,6.007789 -0.065,6.007789 4.37329,6.084689 2.44105,0.0422 5.14893,0.072 6.01752,0.0662 1.57924,-0.01 1.57924,-0.01 1.57924,-6.084699 z m -14.7554,-14.30442 c 0.0465,-4.14079 -0.0156,-5.89829 -0.21757,-6.14153 -0.22918,-0.27612 -1.38191,-0.33649 -6.0785,-0.31833 -5.795692,0.0224 -5.795692,0.0224 -5.813222,0.6749 -0.01,0.35888 -0.0672,3.0363 -0.12783,5.94983 -0.0607,2.91353 -0.0452,5.40273 0.0345,5.53157 0.0884,0.14301 2.48044,0.20894 6.141122,0.16929 5.99634,-0.0649 5.99634,-0.0649 6.06155,-5.86573 z m 14.82033,-0.18489 c 0.0506,-4.6679 -0.003,-6.00516 -0.24297,-6.07414 -0.16933,-0.0486 -2.9693,-0.0538 -6.22213,-0.0114 -5.91424,0.077 -5.91424,0.077 -5.73804,5.95266 0.0969,3.23164 0.26146,5.93038 0.36566,5.99719 0.10421,0.0668 2.79566,0.12147 5.98101,0.12147 5.79153,0 5.79153,0 5.85646,-5.98568 z"
         style="display:inline;fill:#ffffff;stroke:none;stroke-width:5;stroke-dasharray:none;stroke-opacity:1"
         id="path1"
         inkscape:label="Ventana"
         transform="translate(5.2397883,8.8028446)" /></g></g></svg>
